<svg width="874" height="862" viewBox="0 0 874 862" fill="none" xmlns="http://www.w3.org/2000/svg">
<g clip-path="url(#clip0_201_118)">
<path d="M736.044 0H302.951V433.093H736.044V0Z" fill="#F4F4F4"/>
<path d="M741.008 0H736.044V433.093H741.008V0Z" fill="#F4F4F4"/>
<path opacity="0.05" d="M741.008 0H736.044V433.093H741.008V0Z" fill="#292A2E"/>
<path opacity="0.05" d="M631.125 298.437V185.125H538.307V250.957H394.53V367.52H333.423V433.093H394.53H406.302H715.211V298.437H631.125Z" fill="#292A2E"/>
<path opacity="0.34" d="M617.813 197.428H550.221V209.731H617.813V197.428Z" fill="#FFFFFA"/>
<path opacity="0.34" d="M617.813 222.923H550.221V235.226H617.813V222.923Z" fill="#FFFFFA"/>
<path opacity="0.34" d="M617.813 248.418H550.221V260.721H617.813V248.418Z" fill="#FFFFFA"/>
<path opacity="0.34" d="M703.225 310.379H690.767V322.682H703.225V310.379Z" fill="#FFFFFA"/>
<path opacity="0.34" d="M703.225 335.874H690.767V348.177H703.225V335.874Z" fill="#FFFFFA"/>
<path opacity="0.34" d="M703.225 361.368H690.767V373.671H703.225V361.368Z" fill="#FFFFFA"/>
<path opacity="0.34" d="M680.177 310.379H667.719V322.682H680.177V310.379Z" fill="#FFFFFA"/>
<path opacity="0.34" d="M680.177 335.874H667.719V348.177H680.177V335.874Z" fill="#FFFFFA"/>
<path opacity="0.34" d="M680.177 361.368H667.719V373.671H680.177V361.368Z" fill="#FFFFFA"/>
<path opacity="0.34" d="M657.753 310.379H645.295V322.682H657.753V310.379Z" fill="#FFFFFA"/>
<path opacity="0.34" d="M657.753 335.874H645.295V348.177H657.753V335.874Z" fill="#FFFFFA"/>
<path opacity="0.34" d="M657.753 361.368H645.295V373.671H657.753V361.368Z" fill="#FFFFFA"/>
<path d="M736.044 214.117H648.899V0H641.691V214.117H406.302V0H399.095V214.117H302.951V221.324H399.095V433.093H406.302V221.324H641.691V433.093H648.899V221.324H736.044V214.117Z" fill="white"/>
<path d="M753.297 432.571H285.698V446.974H753.297V432.571Z" fill="#F4F4F4"/>
<path opacity="0.1" d="M753.297 432.571H285.698V446.974H753.297V432.571Z" fill="#292A2E"/>
<path opacity="0.1" d="M760.048 432.571H753.297V446.974H760.048V432.571Z" fill="#292A2E"/>
<path opacity="0.1" d="M760.048 432.571H753.297V446.974H760.048V432.571Z" fill="#292A2E"/>
<path d="M741.008 7.73096H302.951V18.44H741.008V7.73096Z" fill="white"/>
<path d="M741.008 27.7329H302.951V38.4419H741.008V27.7329Z" fill="white"/>
<path d="M741.008 47.734H302.951V58.443H741.008V47.734Z" fill="white"/>
<path d="M741.008 67.736H302.951V78.445H741.008V67.736Z" fill="white"/>
<path d="M741.008 87.7379H302.951V98.4469H741.008V87.7379Z" fill="white"/>
<path d="M694.48 0H687.916V110.524H694.48V0Z" fill="white"/>
<path d="M691.755 126.397C696.736 126.397 700.774 122.359 700.774 117.378C700.774 112.397 696.736 108.359 691.755 108.359C686.774 108.359 682.736 112.397 682.736 117.378C682.736 122.359 686.774 126.397 691.755 126.397Z" fill="white"/>
<path d="M861.122 861.772H0.7C0.608075 861.772 0.51705 861.754 0.432122 861.719C0.347194 861.684 0.270026 861.632 0.205025 861.567C0.140024 861.502 0.0884627 861.425 0.0532844 861.34C0.018106 861.255 0 861.164 0 861.072C0 860.98 0.018106 860.889 0.0532844 860.804C0.0884627 860.719 0.140024 860.642 0.205025 860.577C0.270026 860.512 0.347194 860.461 0.432122 860.425C0.51705 860.39 0.608075 860.372 0.7 860.372H861.12C861.306 860.372 861.484 860.446 861.615 860.577C861.746 860.708 861.82 860.886 861.82 861.072C861.82 861.258 861.746 861.436 861.615 861.567C861.484 861.698 861.306 861.772 861.12 861.772H861.122Z" fill="#292A2E"/>
<g opacity="0.65">
<path opacity="0.65" d="M861.122 861.772H0.7C0.608075 861.772 0.51705 861.754 0.432122 861.719C0.347194 861.684 0.270026 861.632 0.205025 861.567C0.140024 861.502 0.0884627 861.425 0.0532844 861.34C0.018106 861.255 0 861.164 0 861.072C0 860.98 0.018106 860.889 0.0532844 860.804C0.0884627 860.719 0.140024 860.642 0.205025 860.577C0.270026 860.512 0.347194 860.461 0.432122 860.425C0.51705 860.39 0.608075 860.372 0.7 860.372H861.12C861.306 860.372 861.484 860.446 861.615 860.577C861.746 860.708 861.82 860.886 861.82 861.072C861.82 861.258 861.746 861.436 861.615 861.567C861.484 861.698 861.306 861.772 861.12 861.772H861.122Z" fill="#292A2E"/>
</g>
<path d="M60.603 860.541L58.639 860.163L89.335 555.131L91.299 555.509L60.603 860.541Z" fill="#494949"/>
<path d="M174.901 860.541L172.937 860.163L203.633 555.131L205.596 555.509L174.901 860.541Z" fill="#494949"/>
<path d="M427.549 860.541L429.513 860.163L398.818 555.131L396.854 555.509L427.549 860.541Z" fill="#494949"/>
<path d="M313.252 860.541L315.215 860.163L284.52 555.131L282.556 555.509L313.252 860.541Z" fill="#494949"/>
<path d="M272.543 420.887L270.561 421.151L288.493 555.456L290.475 555.191L272.543 420.887Z" fill="#494949"/>
<path d="M66.7187 420.885L64.7363 421.15L82.6683 555.454L84.6507 555.189L66.7187 420.885Z" fill="#494949"/>
<path d="M290.304 545.485H88.9839C83.5522 545.485 79.1489 549.888 79.1489 555.32V555.321C79.1489 560.753 83.5522 565.156 88.9839 565.156H290.304C295.736 565.156 300.139 560.753 300.139 555.321V555.32C300.139 549.888 295.736 545.485 290.304 545.485Z" fill="#292A2E"/>
<path opacity="0.8" d="M290.304 545.485H88.9839C83.5522 545.485 79.1489 549.888 79.1489 555.32V555.321C79.1489 560.753 83.5522 565.156 88.9839 565.156H290.304C295.736 565.156 300.139 560.753 300.139 555.321V555.32C300.139 549.888 295.736 545.485 290.304 545.485Z" fill="white"/>
<path d="M290.3 566.156H88.984C86.1283 566.129 83.3988 564.975 81.3891 562.946C79.3795 560.917 78.2521 558.176 78.2521 555.321C78.2521 552.465 79.3795 549.724 81.3891 547.695C83.3988 545.666 86.1283 544.513 88.984 544.485H290.3C293.156 544.513 295.885 545.666 297.895 547.695C299.904 549.724 301.032 552.465 301.032 555.321C301.032 558.176 299.904 560.917 297.895 562.946C295.885 564.975 293.156 566.129 290.3 566.156V566.156ZM88.984 546.485C86.6569 546.51 84.4336 547.452 82.7968 549.106C81.1601 550.76 80.242 552.993 80.242 555.321C80.242 557.648 81.1601 559.881 82.7968 561.535C84.4336 563.19 86.6569 564.131 88.984 564.156H290.3C292.627 564.131 294.85 563.19 296.487 561.535C298.124 559.881 299.042 557.648 299.042 555.321C299.042 552.993 298.124 550.76 296.487 549.106C294.85 547.452 292.627 546.51 290.3 546.485H88.984Z" fill="#292A2E"/>
<path d="M400.799 545.485H199.479C194.047 545.485 189.644 549.888 189.644 555.32V555.321C189.644 560.753 194.047 565.156 199.479 565.156H400.799C406.231 565.156 410.634 560.753 410.634 555.321V555.32C410.634 549.888 406.231 545.485 400.799 545.485Z" fill="white"/>
<path d="M400.8 566.156H199.48C198.048 566.17 196.628 565.9 195.301 565.361C193.975 564.823 192.768 564.027 191.751 563.02C190.733 562.012 189.926 560.813 189.375 559.491C188.824 558.17 188.54 556.752 188.54 555.321C188.54 553.889 188.824 552.471 189.375 551.15C189.926 549.828 190.733 548.629 191.751 547.622C192.768 546.614 193.975 545.818 195.301 545.28C196.628 544.741 198.048 544.471 199.48 544.485H400.8C402.232 544.471 403.652 544.741 404.979 545.28C406.305 545.818 407.512 546.614 408.529 547.622C409.547 548.629 410.354 549.828 410.905 551.15C411.456 552.471 411.74 553.889 411.74 555.321C411.74 556.752 411.456 558.17 410.905 559.491C410.354 560.813 409.547 562.012 408.529 563.02C407.512 564.027 406.305 564.823 404.979 565.361C403.652 565.9 402.232 566.17 400.8 566.156V566.156ZM199.48 546.485C198.312 546.473 197.153 546.692 196.07 547.131C194.987 547.569 194.002 548.218 193.171 549.04C192.341 549.861 191.682 550.839 191.232 551.918C190.782 552.996 190.55 554.152 190.55 555.321C190.55 556.489 190.782 557.646 191.232 558.724C191.682 559.802 192.341 560.78 193.171 561.602C194.002 562.423 194.987 563.072 196.07 563.511C197.153 563.949 198.312 564.169 199.48 564.156H400.8C401.968 564.169 403.127 563.949 404.21 563.511C405.293 563.072 406.278 562.423 407.109 561.602C407.939 560.78 408.598 559.802 409.048 558.724C409.498 557.646 409.73 556.489 409.73 555.321C409.73 554.152 409.498 552.996 409.048 551.918C408.598 550.839 407.939 549.861 407.109 549.04C406.278 548.218 405.293 547.569 404.21 547.131C403.127 546.692 401.968 546.473 400.8 546.485H199.48Z" fill="#292A2E"/>
<path d="M261.515 421.016H66.268C63.0759 421.016 59.9929 419.855 57.5945 417.748C55.1961 415.642 53.6461 412.734 53.234 409.569L40.319 310.389C40.0775 308.535 40.2342 306.651 40.7788 304.863C41.3234 303.074 42.2432 301.422 43.4769 300.018C44.7106 298.613 46.2298 297.487 47.9331 296.717C49.6363 295.946 51.4844 295.547 53.354 295.547H248.6C251.792 295.547 254.875 296.709 257.273 298.815C259.672 300.922 261.222 303.829 261.634 306.994L274.549 406.174C274.79 408.028 274.633 409.912 274.089 411.7C273.544 413.489 272.625 415.14 271.391 416.545C270.157 417.95 268.638 419.075 266.935 419.846C265.232 420.617 263.384 421.016 261.515 421.016Z" fill="#292A2E"/>
<path opacity="0.8" d="M261.515 421.016H66.268C63.0759 421.016 59.9929 419.855 57.5945 417.748C55.1961 415.642 53.6461 412.734 53.234 409.569L40.319 310.389C40.0775 308.535 40.2342 306.651 40.7788 304.863C41.3234 303.074 42.2432 301.422 43.4769 300.018C44.7106 298.613 46.2298 297.487 47.9331 296.717C49.6363 295.946 51.4844 295.547 53.354 295.547H248.6C251.792 295.547 254.875 296.709 257.273 298.815C259.672 300.922 261.222 303.829 261.634 306.994L274.549 406.174C274.79 408.028 274.633 409.912 274.089 411.7C273.544 413.489 272.625 415.14 271.391 416.545C270.157 417.95 268.638 419.075 266.935 419.846C265.232 420.617 263.384 421.016 261.515 421.016Z" fill="white"/>
<path d="M261.515 422.016H66.268C62.8355 422.008 59.5223 420.756 56.943 418.491C54.3637 416.226 52.6934 413.103 52.242 409.7L39.327 310.52C39.0671 308.525 39.2358 306.498 39.8218 304.573C40.4078 302.649 41.3975 300.871 42.725 299.36C44.0525 297.848 45.6872 296.637 47.5199 295.808C49.3526 294.978 51.3412 294.549 53.353 294.549H248.6C252.033 294.557 255.347 295.81 257.926 298.075C260.506 300.34 262.176 303.465 262.627 306.868L275.542 406.047C275.802 408.042 275.633 410.069 275.046 411.994C274.46 413.918 273.47 415.695 272.143 417.207C270.815 418.719 269.181 419.929 267.348 420.759C265.515 421.589 263.527 422.018 261.515 422.018V422.016ZM53.353 296.547C51.6257 296.547 49.9184 296.916 48.3448 297.628C46.7713 298.34 45.3679 299.38 44.2282 300.678C43.0884 301.976 42.2387 303.502 41.7357 305.154C41.2326 306.807 41.0878 308.547 41.311 310.26L54.225 409.44C54.6125 412.362 56.0466 415.044 58.2612 416.989C60.4758 418.934 63.3206 420.009 66.268 420.016H261.515C263.243 420.016 264.95 419.648 266.524 418.935C268.098 418.222 269.502 417.182 270.641 415.884C271.781 414.586 272.631 413.06 273.134 411.407C273.637 409.754 273.781 408.013 273.558 406.3L260.643 307.121C260.255 304.199 258.821 301.518 256.607 299.573C254.392 297.629 251.547 296.553 248.6 296.547H53.353Z" fill="#292A2E"/>
<path d="M272.556 421.016H77.309C74.1168 421.016 71.0337 419.855 68.6351 417.748C66.2365 415.642 64.6864 412.735 64.274 409.569L51.359 310.389C51.1178 308.535 51.2748 306.651 51.8195 304.863C52.3642 303.075 53.2841 301.423 54.5177 300.018C55.7514 298.614 57.2704 297.488 58.9735 296.717C60.6766 295.946 62.5245 295.547 64.394 295.547H259.641C262.833 295.547 265.916 296.709 268.315 298.815C270.714 300.921 272.264 303.829 272.676 306.994L285.591 406.174C285.832 408.028 285.675 409.912 285.13 411.7C284.586 413.489 283.666 415.14 282.432 416.545C281.199 417.95 279.68 419.075 277.977 419.846C276.273 420.617 274.425 421.016 272.556 421.016V421.016Z" fill="white"/>
<path d="M272.556 422.016H77.309C73.8764 422.009 70.5631 420.756 67.9838 418.491C65.4044 416.226 63.7342 413.103 63.283 409.7L50.368 310.52C50.1081 308.525 50.2768 306.498 50.8628 304.573C51.4488 302.649 52.4385 300.871 53.766 299.36C55.0935 297.848 56.7282 296.637 58.5609 295.808C60.3937 294.978 62.3823 294.549 64.394 294.549H259.641C263.074 294.557 266.388 295.809 268.967 298.075C271.547 300.34 273.216 303.465 273.667 306.868L286.582 406.047C286.842 408.042 286.673 410.069 286.087 411.994C285.501 413.918 284.511 415.696 283.184 417.207C281.856 418.719 280.222 419.93 278.389 420.759C276.556 421.589 274.568 422.018 272.556 422.018V422.016ZM64.394 296.547C62.6667 296.547 60.9593 296.916 59.3858 297.628C57.8122 298.34 56.4087 299.38 55.2689 300.678C54.1291 301.976 53.2793 303.502 52.7761 305.154C52.2729 306.807 52.128 308.547 52.351 310.26L65.266 409.44C65.6531 412.362 67.0871 415.044 69.3018 416.989C71.5165 418.934 74.3615 420.01 77.309 420.016H272.556C274.284 420.016 275.991 419.648 277.565 418.935C279.139 418.223 280.543 417.183 281.683 415.885C282.823 414.586 283.673 413.06 284.176 411.407C284.679 409.754 284.823 408.013 284.6 406.3L271.685 307.121C271.298 304.199 269.864 301.517 267.649 299.572C265.435 297.626 262.59 296.551 259.642 296.544L64.394 296.547Z" fill="#292A2E"/>
<path d="M547.921 809.525C547.921 809.525 553.283 837.319 579.305 838.867C605.327 840.415 599.685 861.147 599.685 861.147H500.241V811.463L547.921 809.525Z" fill="#367CFF"/>
<path d="M358.733 791.977C358.733 791.977 351.276 819.283 373.943 832.16C396.61 845.037 382.395 861.147 382.395 861.147L293.163 817.247L315.094 772.665L358.733 791.977Z" fill="#367CFF"/>
<path d="M278.659 144.35C278.659 144.35 291.633 134.557 294.848 112.015C297.337 94.561 281.237 105.868 281.237 105.868C281.237 105.868 282.907 93.284 273.737 94.532C264.567 95.78 259.437 109.002 259.437 109.002" fill="#0C0C0C"/>
<path d="M226.348 96.005C226.348 96.005 180.853 100.883 197.299 162.531L201.325 162.8L209.497 163.348" fill="#0C0C0C"/>
<path d="M271.039 226.913C270.839 226.887 268.619 263.713 225.833 260.505C196.213 258.287 185.652 226.861 184.973 226.861C188.167 226.182 192.113 225.152 193.682 224.798C197.1 224.005 200.196 222.189 202.557 219.593C204.918 216.997 206.433 213.744 206.9 210.266C207.767 205.046 206.3 178.338 206.749 173.056L252.216 183.205C251.581 194.36 247.134 220.221 262.716 224.798C265.313 225.555 268.106 226.251 271.039 226.913Z" fill="#E98862"/>
<path opacity="0.52" d="M252.855 214.229C252.143 211.934 251.684 209.568 251.487 207.173C250.988 201.707 251.089 196.204 251.787 190.76C242.546 189.513 233.84 185.698 226.658 179.75C225.814 182.868 221.171 196.492 222.458 199.456C224.883 205.057 236.3 214.229 252.855 214.229Z" fill="#0C0C0C"/>
<path d="M243.471 206.94C225.533 205.331 204.064 193.998 203.755 169.649L203.475 147.68C203.166 123.331 215.703 103.43 238.629 103.139C261.554 102.847 278.941 122.368 279.25 146.716L279.374 156.442C279.358 159.782 279.115 163.118 278.645 166.425C277.469 175.175 275.645 188.478 269.708 197.478C264.1 205.973 254.93 207.968 243.471 206.94Z" fill="#E98862"/>
<path d="M251.793 184.684C255.495 184.852 259.184 184.147 262.563 182.627C262.633 182.597 262.696 182.554 262.749 182.5C262.802 182.445 262.844 182.381 262.873 182.311C262.901 182.24 262.915 182.165 262.914 182.089C262.914 182.013 262.898 181.938 262.868 181.868C262.838 181.798 262.795 181.735 262.741 181.682C262.686 181.629 262.622 181.587 262.552 181.558C262.481 181.53 262.406 181.516 262.33 181.517C262.254 181.517 262.179 181.533 262.109 181.563C254.829 184.668 248.218 184.213 242.992 180.248C242.886 180.165 242.777 180.087 242.663 180.015C242.532 179.954 242.382 179.945 242.244 179.988C242.106 180.032 241.99 180.126 241.918 180.252C241.845 180.377 241.823 180.525 241.854 180.666C241.886 180.808 241.969 180.932 242.088 181.015C242.13 181.041 242.197 181.094 242.288 181.167C245.035 183.26 248.345 184.484 251.793 184.684Z" fill="#0C0C0C"/>
<path d="M251.62 190.169C252.289 190.211 252.96 190.195 253.626 190.121C253.778 190.105 253.918 190.029 254.015 189.909C254.111 189.79 254.156 189.637 254.14 189.485C254.124 189.332 254.048 189.193 253.928 189.096C253.809 189 253.656 188.955 253.504 188.971C249.497 189.397 247.585 187.561 247.504 187.482C247.394 187.378 247.249 187.322 247.098 187.324C246.948 187.326 246.804 187.386 246.697 187.493C246.59 187.599 246.529 187.743 246.527 187.894C246.525 188.045 246.582 188.19 246.685 188.3C248.065 189.474 249.809 190.134 251.62 190.169V190.169Z" fill="#0C0C0C"/>
<path d="M271.679 161.124C273.239 161.124 274.503 159.86 274.503 158.3C274.503 156.74 273.239 155.476 271.679 155.476C270.119 155.476 268.855 156.74 268.855 158.3C268.855 159.86 270.119 161.124 271.679 161.124Z" fill="#0C0C0C"/>
<path d="M244.091 159.393C245.651 159.393 246.915 158.129 246.915 156.569C246.915 155.009 245.651 153.745 244.091 153.745C242.531 153.745 241.267 155.009 241.267 156.569C241.267 158.129 242.531 159.393 244.091 159.393Z" fill="#0C0C0C"/>
<path d="M205.273 177.049C198.306 177.138 192.564 169.756 192.473 162.789C192.382 155.822 197.983 151.909 204.95 151.82L208.599 156.442L211.261 176.973L205.273 177.049Z" fill="#E98862"/>
<path d="M212.2 165.854C212.2 165.854 214.553 131.401 225 129.274C231.958 127.857 248.831 137.726 264.459 134.745C271.297 133.445 277.788 135.134 278.448 138.363C278.709 139.642 282.969 121.263 272.262 107.319C263.737 96.219 235.839 93.079 223.147 96.719C188.004 106.801 203.512 153.337 203.512 153.337L205.079 165.214L212.2 165.854Z" fill="#0C0C0C"/>
<path d="M256 176.553C256.015 176.554 256.03 176.554 256.045 176.553C258.29 176.53 262.053 176.242 262.038 174.562C262.023 173.17 258.063 158.187 257.61 156.483C257.56 156.35 257.463 156.241 257.336 156.176C257.21 156.111 257.065 156.095 256.927 156.132C256.79 156.168 256.672 156.254 256.595 156.373C256.517 156.492 256.487 156.636 256.51 156.776C258.269 163.412 260.889 173.628 260.9 174.576C260.683 174.976 258.364 175.387 256.039 175.411C255.892 175.414 255.753 175.473 255.648 175.577C255.544 175.68 255.484 175.819 255.48 175.966C255.475 176.112 255.527 176.255 255.625 176.364C255.723 176.474 255.859 176.541 256.005 176.553H256Z" fill="#0C0C0C"/>
<path d="M263.664 142.988C266.024 142.338 268.515 142.338 270.874 142.988C272.033 143.299 273.139 143.784 274.154 144.424C275.158 145.051 276.078 145.802 276.893 146.66C277.049 146.811 277.14 147.018 277.146 147.235C277.152 147.453 277.072 147.664 276.924 147.823C276.776 147.983 276.572 148.078 276.355 148.089C276.138 148.099 275.925 148.024 275.762 147.88L275.711 147.836C274.956 147.137 274.116 146.536 273.211 146.047C272.323 145.56 271.367 145.212 270.374 145.012C268.42 144.601 266.393 144.714 264.497 145.34L264.417 145.368C264.104 145.479 263.76 145.46 263.461 145.317C263.162 145.174 262.931 144.918 262.821 144.605C262.71 144.293 262.728 143.949 262.871 143.649C263.014 143.35 263.27 143.12 263.583 143.009L263.664 142.988Z" fill="#0C0C0C"/>
<path d="M246.956 144.405C245.161 143.532 243.167 143.15 241.176 143.296C240.166 143.362 239.171 143.58 238.226 143.944C237.265 144.309 236.354 144.793 235.514 145.384L235.46 145.42C235.28 145.536 235.062 145.577 234.851 145.536C234.641 145.495 234.455 145.375 234.331 145.2C234.207 145.025 234.155 144.81 234.186 144.598C234.217 144.386 234.329 144.194 234.498 144.062C235.421 143.321 236.433 142.698 237.511 142.21C238.603 141.711 239.763 141.379 240.953 141.224C242.145 141.057 243.354 141.053 244.547 141.215C245.771 141.367 246.968 141.693 248.1 142.182C248.405 142.315 248.645 142.563 248.767 142.872C248.889 143.182 248.883 143.527 248.75 143.832C248.617 144.137 248.369 144.377 248.06 144.499C247.75 144.621 247.405 144.615 247.1 144.482C247.077 144.472 247.053 144.461 247.031 144.449L246.956 144.405Z" fill="#0C0C0C"/>
<path d="M260.307 119.27C265.464 118.193 268.359 111.166 266.773 103.576C265.187 95.9857 259.721 90.7061 254.564 91.7835C249.407 92.8609 246.512 99.8874 248.098 107.478C249.684 115.068 255.15 120.347 260.307 119.27Z" fill="#0C0C0C"/>
<path d="M303.466 784.264L378.715 546.874H242.315C214.915 546.874 203.493 523.639 203.493 496.241C203.493 468.843 230.429 444.825 257.827 444.825H441.917C458.628 444.825 477.366 455.045 486.538 469.015C495.71 482.985 493.23 504.632 486.585 519.966L366.085 812.633" fill="#262626"/>
<path opacity="0.8" d="M303.466 784.264L378.715 546.874H242.315C214.915 546.874 203.493 523.639 203.493 496.241C203.493 468.843 230.429 444.825 257.827 444.825H441.917C458.628 444.825 477.366 455.045 486.538 469.015C495.71 482.985 493.23 504.632 486.585 519.966L366.085 812.633" fill="#0A0A0A"/>
<path d="M494.522 835.336L368.7 546.874L203.491 546.863C164.78 543.828 147.051 522.613 147.615 495.221C148.171 468.176 161.865 441.463 188.788 441.463H411.46C431.38 441.873 447.052 463.886 454.442 482.388L559.042 817.676" fill="#262626"/>
<path d="M136.347 441.794C136.347 441.794 129.01 489.64 140.64 516.241C155.159 549.451 209.587 546.864 209.587 546.864L206.52 441.464L136.347 441.794Z" fill="#262626"/>
<path d="M459.176 440.853L342.476 416.671C337.613 415.663 333.083 413.446 329.305 410.223C325.526 407 322.622 402.876 320.86 398.233L274.96 277.28C273.562 273.65 272.896 269.78 272.998 265.891C273.101 262.003 273.971 258.173 275.558 254.622C277.145 251.07 279.418 247.868 282.247 245.197C285.075 242.527 288.403 240.442 292.04 239.062C295.677 237.682 299.55 237.034 303.438 237.155C307.326 237.277 311.152 238.165 314.695 239.769C318.239 241.373 321.43 243.662 324.087 246.503C326.743 249.344 328.812 252.683 330.175 256.326L370.327 362.126L471.162 383.02C471.162 383.02 461.2 441.272 459.176 440.853Z" fill="#367CFF"/>
<path d="M324.2 308C322.853 323.833 313.3 422.61 312 442.112H136.424C135.415 424.523 130.885 347.612 127.06 313.212C123.408 280.391 118.289 265.455 122.495 255.255C129.913 237.266 153.525 229.232 169.515 227.068C179.278 225.746 193.963 224.798 193.963 224.798C193.963 224.798 195.207 249.951 224.855 251.351C265.214 253.251 262.519 224.798 262.719 224.798C269.257 224.798 304.847 229.553 313.746 235.353C326.316 243.546 330.03 254.71 330.177 264.968C330.346 276.778 325.728 290.039 324.2 308Z" fill="#367CFF"/>
<path d="M317.3 388.707H317.258C317.193 388.702 317.129 388.683 317.07 388.653C317.012 388.623 316.96 388.582 316.918 388.532C316.875 388.482 316.843 388.424 316.823 388.361C316.803 388.298 316.796 388.232 316.801 388.167L321.359 333.413C321.363 333.347 321.38 333.282 321.409 333.223C321.439 333.164 321.48 333.111 321.53 333.069C321.581 333.026 321.639 332.994 321.703 332.975C321.766 332.955 321.832 332.949 321.898 332.956C321.964 332.961 322.027 332.98 322.086 333.01C322.144 333.04 322.196 333.081 322.238 333.131C322.281 333.181 322.313 333.239 322.333 333.302C322.353 333.365 322.361 333.431 322.355 333.496L317.797 388.25C317.786 388.374 317.729 388.49 317.637 388.575C317.545 388.66 317.425 388.707 317.3 388.707Z" fill="#0C0C0C"/>
<path d="M345.527 431.253L384.051 312.83C384.728 310.749 386.046 308.936 387.817 307.65C389.587 306.364 391.72 305.671 393.908 305.671H550.86C552.496 305.671 554.109 306.058 555.567 306.801C557.024 307.544 558.286 308.621 559.247 309.945C560.208 311.269 560.843 312.802 561.098 314.418C561.354 316.034 561.223 317.687 560.717 319.243L522.193 437.666C521.516 439.747 520.198 441.56 518.427 442.846C516.656 444.132 514.524 444.825 512.336 444.825H355.384C353.748 444.825 352.135 444.438 350.677 443.695C349.219 442.952 347.958 441.875 346.997 440.551C346.035 439.227 345.401 437.695 345.145 436.078C344.89 434.462 345.021 432.809 345.527 431.253V431.253Z" fill="#292A2E"/>
<path opacity="0.2" d="M345.527 431.253L384.051 312.83C384.728 310.749 386.046 308.936 387.817 307.65C389.587 306.364 391.72 305.671 393.908 305.671H550.86C552.496 305.671 554.109 306.058 555.567 306.801C557.024 307.544 558.286 308.621 559.247 309.945C560.208 311.269 560.843 312.802 561.098 314.418C561.354 316.034 561.223 317.687 560.717 319.243L522.193 437.666C521.516 439.747 520.198 441.56 518.427 442.846C516.656 444.132 514.524 444.825 512.336 444.825H355.384C353.748 444.825 352.135 444.438 350.677 443.695C349.219 442.952 347.958 441.875 346.997 440.551C346.035 439.227 345.401 437.695 345.145 436.078C344.89 434.462 345.021 432.809 345.527 431.253V431.253Z" fill="white"/>
<path d="M376.953 435.223H271.889C269.271 435.223 267.149 437.345 267.149 439.963V440.085C267.149 442.703 269.271 444.825 271.889 444.825H376.953C379.571 444.825 381.693 442.703 381.693 440.085V439.963C381.693 437.345 379.571 435.223 376.953 435.223Z" fill="#292A2E"/>
<path opacity="0.2" d="M376.953 435.223H271.889C269.271 435.223 267.149 437.345 267.149 439.963V440.085C267.149 442.703 269.271 444.825 271.889 444.825H376.953C379.571 444.825 381.693 442.703 381.693 440.085V439.963C381.693 437.345 379.571 435.223 376.953 435.223Z" fill="white"/>
<path d="M453.122 397.486C462.213 397.486 469.583 390.116 469.583 381.025C469.583 371.934 462.213 364.564 453.122 364.564C444.031 364.564 436.661 371.934 436.661 381.025C436.661 390.116 444.031 397.486 453.122 397.486Z" fill="white"/>
<path d="M325.791 285.926H284.056V337.11H325.791V285.926Z" fill="white"/>
<path d="M284.056 328.608C280.676 328.608 277.371 327.606 274.561 325.728C271.75 323.85 269.56 321.18 268.266 318.057C266.972 314.934 266.634 311.498 267.293 308.183C267.953 304.867 269.581 301.822 271.971 299.432C274.361 297.042 277.406 295.414 280.722 294.754C284.037 294.095 287.473 294.433 290.596 295.727C293.719 297.021 296.389 299.211 298.267 302.022C300.145 304.832 301.147 308.137 301.147 311.517C301.142 316.048 299.34 320.393 296.136 323.597C292.932 326.801 288.587 328.603 284.056 328.608V328.608ZM284.056 301.427C282.06 301.427 280.109 302.019 278.45 303.128C276.79 304.237 275.497 305.813 274.733 307.657C273.969 309.501 273.77 311.53 274.159 313.487C274.548 315.445 275.51 317.243 276.921 318.654C278.332 320.065 280.13 321.026 282.088 321.415C284.045 321.805 286.074 321.605 287.918 320.841C289.762 320.077 291.338 318.783 292.447 317.124C293.556 315.464 294.147 313.513 294.147 311.517C294.144 308.842 293.08 306.277 291.188 304.385C289.297 302.493 286.731 301.429 284.056 301.427Z" fill="white"/>
<path d="M286.463 319.1C286.083 318.111 285.367 317.288 284.44 316.775C283.514 316.261 282.436 316.09 281.396 316.291C281.416 316.243 281.426 316.192 281.427 316.14L282.827 315.514C283.808 315.097 284.614 314.354 285.11 313.41C285.606 312.467 285.761 311.381 285.548 310.337C285.401 309.685 285.111 309.074 284.699 308.547C284.287 308.021 283.764 307.592 283.166 307.292C282.569 306.993 281.912 306.829 281.244 306.814C280.576 306.799 279.913 306.932 279.302 307.204L276 308.681C276 308.668 276 308.655 275.993 308.642C275.98 308.615 275.964 308.591 275.945 308.568C276.759 307.955 277.34 307.084 277.596 306.098C277.851 305.111 277.764 304.068 277.35 303.137C276.433 300.656 273.183 300.458 271.034 301.417L262.4 304.9L265.006 302.257C265.822 301.395 266.281 300.256 266.29 299.069C266.298 297.881 265.856 296.735 265.052 295.862C264.621 295.426 264.106 295.082 263.537 294.852C262.969 294.621 262.36 294.509 261.746 294.522C261.133 294.535 260.529 294.673 259.971 294.927C259.413 295.181 258.912 295.546 258.5 296L227.8 329.528L238.3 339.64C241.56 342.781 245.684 344.877 250.144 345.658C254.603 346.44 259.194 345.872 263.328 344.027L282.04 335.638C283.021 335.221 283.828 334.478 284.324 333.535C284.819 332.591 284.974 331.505 284.761 330.461C284.549 329.524 284.042 328.678 283.316 328.049C282.59 327.419 281.681 327.038 280.723 326.961C280.734 326.909 280.734 326.856 280.724 326.804C280.713 326.752 280.693 326.702 280.663 326.658C280.634 326.614 280.596 326.576 280.552 326.547C280.508 326.518 280.458 326.498 280.406 326.488L283.861 324.946C284.955 324.483 285.832 323.622 286.315 322.536C286.798 321.451 286.851 320.223 286.463 319.1V319.1Z" fill="#E98862"/>
<path opacity="0.2" d="M269.757 311.518C269.658 311.518 269.562 311.484 269.486 311.421C269.409 311.358 269.357 311.271 269.339 311.173C269.32 311.076 269.336 310.975 269.384 310.889C269.432 310.802 269.509 310.735 269.601 310.699L275.441 308.399C275.493 308.378 275.548 308.368 275.604 308.369C275.66 308.37 275.715 308.382 275.766 308.405C275.817 308.427 275.863 308.459 275.902 308.499C275.94 308.539 275.971 308.586 275.991 308.638C276.011 308.69 276.022 308.745 276.021 308.801C276.02 308.856 276.008 308.911 275.985 308.962C275.963 309.013 275.931 309.06 275.891 309.098C275.851 309.137 275.804 309.167 275.752 309.188L269.912 311.488C269.863 311.507 269.81 311.518 269.757 311.518V311.518Z" fill="#0C0C0C"/>
<path opacity="0.2" d="M273.016 319.776C272.918 319.776 272.823 319.741 272.747 319.679C272.671 319.616 272.62 319.529 272.601 319.432C272.582 319.336 272.598 319.236 272.645 319.15C272.691 319.063 272.767 318.996 272.858 318.959L280.846 315.746C280.949 315.71 281.062 315.715 281.161 315.76C281.261 315.805 281.339 315.887 281.38 315.988C281.42 316.089 281.421 316.202 281.38 316.304C281.339 316.405 281.261 316.487 281.162 316.532L273.175 319.746C273.124 319.766 273.07 319.776 273.016 319.776V319.776Z" fill="#0C0C0C"/>
<path opacity="0.2" d="M276.5 328.742C276.401 328.742 276.305 328.707 276.228 328.644C276.152 328.58 276.1 328.491 276.083 328.394C276.065 328.296 276.082 328.195 276.131 328.109C276.18 328.022 276.258 327.956 276.351 327.921L280.159 326.492C280.264 326.452 280.381 326.456 280.484 326.502C280.586 326.549 280.666 326.634 280.706 326.739C280.746 326.844 280.742 326.961 280.696 327.064C280.65 327.166 280.564 327.246 280.459 327.286L276.651 328.715C276.603 328.733 276.552 328.742 276.5 328.742V328.742Z" fill="#0C0C0C"/>
<path d="M295.343 253.369C295.159 253.369 294.978 253.319 294.821 253.223C294.664 253.127 294.536 252.989 294.452 252.825C292.175 248.386 289.342 242.86 289.662 237.067C289.916 232.46 292.076 228.367 294.162 224.414C295.51 222.025 296.659 219.528 297.597 216.95C298.742 213.393 299.03 209.615 298.439 205.925C297.849 202.235 296.395 198.736 294.197 195.714C294.115 195.609 294.054 195.488 294.019 195.359C293.984 195.23 293.976 195.095 293.994 194.963C294.012 194.831 294.056 194.703 294.124 194.588C294.193 194.473 294.283 194.373 294.39 194.294C294.498 194.214 294.62 194.157 294.75 194.126C294.88 194.095 295.015 194.09 295.147 194.111C295.279 194.133 295.405 194.181 295.518 194.252C295.631 194.323 295.729 194.416 295.805 194.526C298.193 197.806 299.772 201.603 300.415 205.608C301.058 209.614 300.746 213.715 299.505 217.577C298.534 220.262 297.341 222.861 295.939 225.348C293.859 229.287 291.895 233.007 291.665 237.178C291.375 242.429 293.959 247.468 296.238 251.913C296.316 252.065 296.354 252.235 296.347 252.406C296.341 252.577 296.291 252.744 296.201 252.89C296.112 253.036 295.987 253.157 295.838 253.241C295.688 253.325 295.52 253.369 295.349 253.369H295.343Z" fill="white"/>
<path d="M311.4 268.977C311.178 268.977 310.963 268.903 310.788 268.767C310.612 268.632 310.487 268.442 310.432 268.227C310.376 268.012 310.394 267.785 310.482 267.582C310.569 267.378 310.722 267.209 310.916 267.102C314.622 265.058 315.037 259.369 313.296 255.05C312.432 253.065 311.422 251.147 310.273 249.312C308.737 246.935 307.488 244.383 306.553 241.712C305.598 238.455 305.538 235.001 306.379 231.713C307.221 228.424 308.933 225.424 311.335 223.026C311.526 222.844 311.781 222.745 312.044 222.75C312.308 222.755 312.559 222.864 312.743 223.053C312.926 223.242 313.028 223.496 313.025 223.76C313.022 224.024 312.916 224.276 312.728 224.461C310.586 226.599 309.06 229.275 308.309 232.207C307.559 235.139 307.613 238.22 308.464 241.124C309.353 243.644 310.538 246.05 311.993 248.292C313.196 250.212 314.251 252.221 315.15 254.301C317.189 259.358 316.735 266.176 311.881 268.852C311.734 268.933 311.568 268.976 311.4 268.977Z" fill="white"/>
<path d="M263 356.145L115.75 417.085C110.441 419.258 104.614 419.838 98.9808 418.753C93.3477 417.669 88.1524 414.967 84.0299 410.978C79.9073 406.989 77.0359 401.885 75.7665 396.291C74.4971 390.697 74.8847 384.854 76.882 379.476L120.8 259.522C126.478 244.234 142.473 235.443 157.762 241.122C165.103 243.849 171.061 249.38 174.324 256.499C177.587 263.619 177.889 271.743 175.162 279.084L155.13 335.859L241.43 302.588" fill="#367CFF"/>
<path d="M262.641 356.689C262.563 356.688 262.486 356.665 262.421 356.621C262.356 356.577 262.305 356.515 262.275 356.443L240.85 303.243L154.839 336.437C154.768 336.465 154.69 336.471 154.615 336.455C154.541 336.439 154.472 336.402 154.418 336.348C154.365 336.294 154.328 336.225 154.312 336.15C154.297 336.076 154.303 335.998 154.331 335.927L167.631 301.791C167.669 301.694 167.744 301.616 167.839 301.574C167.935 301.532 168.043 301.53 168.141 301.567C168.238 301.605 168.316 301.68 168.358 301.776C168.4 301.871 168.402 301.98 168.364 302.077L155.388 335.38L240.929 302.367C241.025 302.33 241.133 302.332 241.228 302.373C241.322 302.414 241.397 302.491 241.436 302.587L263.006 356.148C263.044 356.245 263.042 356.353 263.001 356.449C262.96 356.544 262.884 356.621 262.788 356.661C262.741 356.679 262.691 356.689 262.641 356.689V356.689Z" fill="#0C0C0C"/>
<path d="M127.826 347C127.734 347.001 127.644 346.969 127.573 346.911C127.502 346.852 127.454 346.771 127.436 346.68C127.419 346.59 127.434 346.496 127.479 346.416C127.524 346.335 127.596 346.273 127.682 346.24L154.621 335.64C154.669 335.62 154.721 335.61 154.773 335.61C154.826 335.611 154.877 335.621 154.925 335.642C154.973 335.662 155.017 335.692 155.053 335.73C155.09 335.767 155.118 335.811 155.137 335.86C155.157 335.908 155.166 335.96 155.165 336.013C155.164 336.065 155.152 336.116 155.131 336.164C155.11 336.212 155.08 336.255 155.042 336.291C155.004 336.327 154.959 336.355 154.91 336.373L127.97 346.973C127.924 346.991 127.875 347 127.826 347V347Z" fill="#0C0C0C"/>
<path d="M134.1 409.969C134.009 409.969 133.92 409.938 133.849 409.88C133.779 409.822 133.73 409.742 133.713 409.652C133.695 409.563 133.709 409.47 133.752 409.39C133.796 409.309 133.865 409.246 133.95 409.212L262.495 355.932C262.543 355.912 262.594 355.902 262.646 355.902C262.697 355.902 262.748 355.913 262.796 355.932C262.844 355.952 262.887 355.981 262.923 356.018C262.96 356.054 262.989 356.098 263.009 356.145C263.028 356.193 263.038 356.244 263.038 356.296C263.038 356.348 263.028 356.399 263.008 356.446C262.988 356.494 262.959 356.537 262.923 356.574C262.886 356.61 262.843 356.639 262.795 356.659L134.25 409.939C134.203 409.959 134.152 409.969 134.1 409.969Z" fill="#0C0C0C"/>
<path d="M786.711 730.631C786.446 730.631 786.192 730.526 786.004 730.338C784.595 728.929 782.299 703.079 776.113 626.115C773.581 594.622 771.19 564.877 769.446 546.8C769.321 545.509 768.821 545.358 768.656 545.309C766.268 544.588 759.004 550.316 754.949 555.331C754.782 555.537 754.541 555.669 754.277 555.697C754.013 555.725 753.749 555.647 753.543 555.481C753.336 555.314 753.205 555.072 753.177 554.808C753.148 554.544 753.226 554.28 753.393 554.074C756.075 550.758 764.815 542.064 769.231 543.393C770.122 543.661 771.231 544.435 771.437 546.607C773.183 564.7 775.574 594.454 778.106 625.954C781.865 672.724 786.124 725.71 787.523 729.047C787.631 729.196 787.695 729.373 787.708 729.556C787.722 729.74 787.685 729.923 787.601 730.087C787.517 730.251 787.39 730.388 787.233 730.484C787.076 730.58 786.895 730.631 786.711 730.631V730.631Z" fill="#494949"/>
<path d="M766.877 579.97C783.471 566.669 788.971 545.966 779.161 533.728C769.352 521.491 747.948 522.353 731.354 535.654C714.76 548.956 709.26 569.659 719.07 581.896C728.879 594.134 750.283 593.272 766.877 579.97Z" fill="#0CBC8B"/>
<path opacity="0.2" d="M766.877 579.97C783.471 566.669 788.971 545.966 779.161 533.728C769.352 521.491 747.948 522.353 731.354 535.654C714.76 548.956 709.26 569.659 719.07 581.896C728.879 594.134 750.283 593.272 766.877 579.97Z" fill="white"/>
<path d="M723.721 585.01C723.626 585.01 723.533 584.983 723.453 584.932C723.373 584.881 723.309 584.808 723.268 584.722C723.228 584.636 723.213 584.54 723.225 584.446C723.237 584.352 723.276 584.263 723.337 584.19L770.628 527.161C770.67 527.109 770.721 527.066 770.779 527.034C770.838 527.003 770.902 526.983 770.968 526.976C771.034 526.969 771.101 526.976 771.164 526.995C771.228 527.015 771.287 527.047 771.338 527.089C771.389 527.132 771.431 527.184 771.462 527.243C771.492 527.301 771.511 527.366 771.516 527.432C771.522 527.498 771.514 527.565 771.494 527.628C771.473 527.691 771.44 527.75 771.397 527.8L724.106 584.829C724.059 584.886 724 584.931 723.934 584.962C723.867 584.994 723.795 585.01 723.721 585.01Z" fill="white"/>
<path d="M797.026 718.405C796.866 718.405 796.709 718.367 796.567 718.294C796.425 718.221 796.303 718.115 796.21 717.985C796.118 717.854 796.058 717.704 796.035 717.546C796.013 717.388 796.029 717.227 796.081 717.076L813.845 665.989C814.368 664.488 815.259 663.142 816.437 662.075C817.615 661.007 819.042 660.253 820.587 659.88C822.133 659.507 823.747 659.527 825.282 659.94C826.817 660.353 828.224 661.144 829.374 662.241L838.765 671.213C838.957 671.396 839.068 671.648 839.074 671.913C839.08 672.179 838.98 672.435 838.797 672.627C838.614 672.819 838.362 672.93 838.097 672.936C837.831 672.942 837.575 672.842 837.383 672.659L827.992 663.688C827.084 662.822 825.973 662.198 824.762 661.872C823.55 661.547 822.276 661.53 821.057 661.825C819.837 662.119 818.711 662.715 817.781 663.557C816.851 664.399 816.147 665.461 815.734 666.646L797.97 717.733C797.902 717.929 797.774 718.099 797.605 718.22C797.436 718.34 797.234 718.405 797.026 718.405Z" fill="#494949"/>
<path d="M865.005 699.498C877.302 689.764 876.571 668.355 863.372 651.68C850.173 635.005 829.504 629.378 817.206 639.112C804.909 648.846 805.64 670.255 818.839 686.93C832.038 703.605 852.707 709.232 865.005 699.498Z" fill="#0CBC8B"/>
<path d="M778.641 727.373C778.416 727.373 778.198 727.297 778.022 727.158C777.845 727.018 777.721 726.824 777.669 726.605L747.859 601.961C747.655 601.111 747.221 600.335 746.604 599.716C745.988 599.097 745.212 598.66 744.363 598.453C743.514 598.247 742.625 598.278 741.793 598.544C740.96 598.81 740.218 599.3 739.646 599.961L730.457 610.58C730.371 610.679 730.266 610.761 730.149 610.82C730.032 610.879 729.904 610.914 729.773 610.923C729.642 610.933 729.51 610.916 729.385 610.875C729.261 610.834 729.145 610.768 729.046 610.682C728.947 610.596 728.865 610.491 728.806 610.374C728.747 610.257 728.712 610.129 728.703 609.998C728.693 609.867 728.71 609.735 728.751 609.61C728.793 609.486 728.858 609.37 728.944 609.271L738.134 598.652C738.947 597.714 740.003 597.019 741.185 596.642C742.367 596.265 743.631 596.221 744.836 596.516C746.042 596.81 747.143 597.431 748.019 598.31C748.894 599.19 749.511 600.293 749.8 601.5L779.61 726.144C779.672 726.402 779.628 726.674 779.49 726.9C779.351 727.126 779.128 727.287 778.87 727.349C778.795 727.366 778.718 727.374 778.641 727.373V727.373Z" fill="#494949"/>
<path d="M767.646 638.269C771.27 617.314 761.679 598.159 746.225 595.486C730.771 592.814 715.305 607.636 711.681 628.591C708.057 649.547 717.647 668.702 733.102 671.374C748.556 674.047 764.022 659.225 767.646 638.269Z" fill="#0CBC8B"/>
<path d="M786.713 730.631C786.672 730.631 786.63 730.628 786.589 730.623C786.326 730.591 786.086 730.455 785.923 730.246C785.76 730.037 785.686 729.772 785.718 729.509L804.755 574.951C804.962 573.267 805.651 571.678 806.74 570.376C807.828 569.074 809.27 568.114 810.891 567.612C812.512 567.11 814.244 567.088 815.878 567.547C817.511 568.006 818.978 568.927 820.1 570.2L841.858 594.843C842.034 595.042 842.123 595.302 842.107 595.567C842.09 595.832 841.969 596.079 841.77 596.255C841.571 596.431 841.311 596.52 841.046 596.503C840.781 596.487 840.534 596.366 840.358 596.167L818.6 571.523C817.732 570.539 816.599 569.827 815.335 569.472C814.072 569.118 812.734 569.136 811.48 569.524C810.227 569.913 809.113 570.655 808.272 571.662C807.431 572.669 806.899 573.898 806.74 575.2L787.7 729.753C787.67 729.994 787.554 730.217 787.372 730.378C787.191 730.54 786.956 730.63 786.713 730.631Z" fill="#494949"/>
<path d="M864.169 608.536C871.761 594.812 862.829 575.342 844.219 565.048C825.61 554.754 804.37 557.535 796.778 571.259C789.187 584.983 798.119 604.454 816.728 614.747C835.338 625.041 856.578 622.26 864.169 608.536Z" fill="#0CBC8B"/>
<path opacity="0.2" d="M865.005 699.498C877.302 689.764 876.571 668.355 863.372 651.68C850.173 635.005 829.504 629.378 817.206 639.112C804.909 648.846 805.64 670.255 818.839 686.93C832.038 703.605 852.707 709.232 865.005 699.498Z" fill="white"/>
<path opacity="0.5" d="M767.646 638.269C771.27 617.314 761.679 598.159 746.225 595.486C730.771 592.814 715.305 607.636 711.681 628.591C708.057 649.547 717.647 668.702 733.102 671.374C748.556 674.047 764.022 659.225 767.646 638.269Z" fill="white"/>
<path opacity="0.5" d="M864.169 608.536C871.761 594.812 862.829 575.342 844.219 565.048C825.61 554.754 804.37 557.535 796.778 571.259C789.187 584.983 798.119 604.454 816.728 614.747C835.338 625.041 856.578 622.26 864.169 608.536Z" fill="white"/>
<path d="M811.059 861.772H762.363L754.294 705.968H819.129L811.059 861.772Z" fill="#292A2E"/>
<path opacity="0.3" d="M811.059 861.772H762.363L754.294 705.968H819.129L811.059 861.772Z" fill="white"/>
<path d="M865.005 699.992C864.929 699.992 864.855 699.975 864.787 699.943C864.719 699.91 864.659 699.862 864.612 699.803L816.812 639.416C816.73 639.312 816.692 639.18 816.707 639.048C816.722 638.916 816.789 638.796 816.893 638.713C816.997 638.631 817.13 638.593 817.262 638.609C817.393 638.624 817.514 638.691 817.596 638.795L865.396 699.181C865.454 699.255 865.491 699.343 865.501 699.437C865.512 699.53 865.496 699.624 865.455 699.709C865.414 699.794 865.35 699.865 865.271 699.915C865.191 699.965 865.099 699.992 865.005 699.992Z" fill="white"/>
<path d="M860.991 613.375C860.885 613.374 860.782 613.339 860.697 613.275L799.53 568.616C799.477 568.577 799.432 568.528 799.398 568.472C799.364 568.416 799.341 568.354 799.331 568.289C799.321 568.224 799.323 568.158 799.339 568.094C799.354 568.03 799.382 567.97 799.421 567.917C799.46 567.864 799.508 567.819 799.565 567.785C799.621 567.751 799.683 567.728 799.748 567.718C799.813 567.708 799.879 567.71 799.943 567.726C800.007 567.741 800.067 567.769 800.12 567.808L861.286 612.471C861.37 612.534 861.431 612.621 861.463 612.721C861.494 612.82 861.494 612.927 861.461 613.027C861.429 613.126 861.366 613.213 861.281 613.274C861.197 613.336 861.095 613.37 860.991 613.371V613.375Z" fill="white"/>
<path d="M730.616 670.723C730.572 670.723 730.529 670.718 730.487 670.706C730.359 670.672 730.25 670.588 730.183 670.473C730.117 670.359 730.099 670.222 730.133 670.094L749.605 597.141C749.621 597.077 749.65 597.016 749.689 596.963C749.729 596.91 749.779 596.865 749.836 596.831C749.893 596.798 749.957 596.776 750.022 596.767C750.088 596.758 750.155 596.762 750.219 596.779C750.283 596.796 750.343 596.826 750.396 596.866C750.448 596.907 750.492 596.958 750.525 597.015C750.558 597.073 750.579 597.137 750.587 597.202C750.595 597.268 750.589 597.335 750.571 597.399L731.1 670.352C731.072 670.459 731.009 670.553 730.921 670.62C730.834 670.687 730.726 670.723 730.616 670.723Z" fill="white"/>
</g>
<defs>
<clipPath id="clip0_201_118">
<rect width="873.77" height="861.772" fill="white"/>
</clipPath>
</defs>
</svg>
